<?xml version="1.0" encoding="utf-8"?>
<!-- Generator: Adobe Illustrator 22.1.0, SVG Export Plug-In . SVG Version: 6.00 Build 0)  -->
<svg version="1.1" id="Layer_1" xmlns="http://www.w3.org/2000/svg" xmlns:xlink="http://www.w3.org/1999/xlink" x="0px" y="0px"
	 viewBox="0 0 413.7 56.7" style="enable-background:new 0 0 413.7 56.7;" xml:space="preserve">
<style type="text/css">
	.st0{fill:#0D69FF;}
	.st1{fill:#FFFFFF;}
</style>
<g>
	<path class="st1" d="M150.2,29.1l-0.8-0.3l0.7-0.5c3.6-2.4,5.3-5.5,5.3-9.7c0-6-3.9-9.2-6.2-10.5C145.6,6,141.1,6,138.9,6h-17.2
		v50.1h19.1c2.6,0,9-0.3,12.8-2.7c3.9-2.5,5.7-8.1,5.7-12.1C159.4,39.8,158.9,31.9,150.2,29.1 M132.2,13.7h3.8c1.9,0,5.1,0,7.1,1.9
		c1.2,1.2,2,2.9,2,4.5c0,2.1-1.3,4.7-4.1,5.8c-1.8,0.7-4.4,0.7-5.5,0.7h-3.3V13.7z M146.9,46.3c-2,2-5.4,2.1-7.3,2.1h-0.2h-7.2v-14
		h7.5h0.1c1.4,0,3.5,0,5.4,0.9c2.3,1.1,3.5,3.2,3.5,6.2C148.7,43.5,148.1,45.1,146.9,46.3"/>
	<polygon class="st1" points="178.2,6 167.7,6 167.7,56.1 201.2,56.1 201.2,48.4 178.2,48.4 	"/>
	<path class="st1" d="M200.9,31c0,12.8,8.8,25.7,25.6,25.7c16.6,0,25.3-12.9,25.3-25.7c0-10.3-6.9-25.5-25.8-25.5
		C209.6,5.4,200.9,18.6,200.9,31 M240.9,30.9c0,9.9-6,16.8-14.6,16.8c-9.6,0-14.6-8.3-14.6-16.5c0-8.5,4.6-17,14.9-17
		C235,14.3,240.9,21.1,240.9,30.9"/>
	<path class="st1" d="M256.8,31c0,12.8,8.8,25.7,25.6,25.7c16.6,0,25.3-12.9,25.3-25.7c0-10.3-6.9-25.5-25.8-25.5
		C265.6,5.4,256.8,18.6,256.8,31 M296.9,30.9c0,9.9-6,16.8-14.6,16.8c-9.6,0-14.6-8.3-14.6-16.5c0-8.5,4.6-17,14.9-17
		C291,14.3,296.9,21.1,296.9,30.9"/>
	<polygon class="st1" points="315.4,6 315.4,56.1 325.4,56.1 325.4,22.9 351.9,56.1 360.9,56.1 360.9,6 350.9,6 350.9,38.6 324.8,6 
			"/>
	<polygon class="st1" points="401.4,6 390.6,22.1 379.8,6 367.5,6 385.4,32.5 385.4,56.1 395.9,56.1 395.9,32.5 413.7,6 	"/>
	<path class="st1" d="M79.2,56.7c9.9,0,17.9-8,17.9-17.9c0-9.9-8-17.9-17.9-17.9c-0.1,0-0.1,0-0.2,0c-1.1-8.2-8.1-14.5-16.6-14.5
		c-3,0-5.8,0.8-8.2,2.1C50.6,3.4,44.7,0,37.9,0c-11,0-20,8.9-20,20c0,0.3,0,0.6,0,0.9h0C8,20.9,0,28.9,0,38.8
		c0,9.9,8,17.9,17.9,17.9H79.2z"/>
	<path class="st1" d="M97.1,5.1c0,2.8-2.3,5.1-5.1,5.1c-2.8,0-5.1-2.3-5.1-5.1C86.8,2.3,89.1,0,92,0C94.8,0,97.1,2.3,97.1,5.1"/>
</g>
</svg>
